<?xml version="1.0"?>
<svg xmlns="http://www.w3.org/2000/svg" viewBox="0 0 1558 576" fill="none">
<path d="M1364.7 172.133C1370.57 147.913 1356.52 127.753 1342.86 115.163L1474.9 115.073L1416.62 352.803L1557.47 352.983C1553.04 370.833 1546.68 392.703 1542.12 424.443L1302.71 424.683L1364.71 172.123L1364.7 172.133Z" fill="white"/>
<path d="M626.23 172.563C632.21 148.333 618.32 128.233 604.77 115.153L734.51 115.173L817.37 311.383L865.64 115.183L961.39 115.163L885.58 424.693H779.88L703.69 247.943L660.09 424.713L564.03 424.693L626.23 172.563Z" fill="white"/>
<path d="M1003.9 172.873C1009.71 148.563 995.5 128.303 981.83 115.163H1113.98L1084.57 234.223L1197.22 234.183L1226.12 115.173H1322.51L1246.55 424.713H1150.31L1179.76 305.463L1067.19 305.643L1037.96 424.713H941.75L1003.92 172.893L1003.9 172.873Z" fill="white"/>
<path d="M466.967 208.778C466.967 183.314 473.089 160.765 481.169 142.445L497.193 106.054L459.487 94.9301C443.08 90.0811 431.124 77.679 423.968 58.078L407.324 12.566L370.279 43.248C358.085 53.339 344.143 59.936 329.356 59.936C309.521 59.936 289.89 50.046 277.624 37.907L253.755 14.304L229.903 37.907C217.626 50.046 197.999 59.936 178.159 59.936C163.358 59.936 149.424 53.339 137.241 43.248L100.181 12.566L83.566 58.078C76.384 77.679 64.443 90.0811 48.018 94.9301L10.319 106.054L26.357 142.445C34.418 160.765 40.548 183.313 40.548 208.778C40.548 270.916 10.06 283.27 10.06 348.511C10.06 435.861 75.089 498.598 147.095 517.115C182.684 526.118 199.259 527.002 225.793 534.427C229.236 538.049 253.755 564.532 253.755 564.532C253.755 564.532 278.27 538.049 281.724 534.427C308.252 527.002 324.837 526.118 360.437 517.115C432.417 498.598 497.457 435.861 497.457 348.511C497.455 283.27 466.967 270.916 466.967 208.778ZM356.156 500.292C318.034 509.923 291.726 512.376 272.358 519.364C269.875 521.693 253.753 539.166 253.753 539.166C253.753 539.166 237.642 521.693 235.156 519.364C215.788 512.376 189.472 509.923 151.362 500.292C71.13 479.994 27.188 412.649 27.188 348.511C27.188 290.272 57.621 272.281 57.621 208.632C57.621 159.043 33.953 117.16 33.953 117.16C33.953 117.16 92.133 112.089 107.902 41.3571C107.902 41.3571 142.8 77.289 178.159 77.289C223.762 77.289 253.754 38.5461 253.754 38.5461C253.754 38.5461 283.757 77.289 329.356 77.289C364.715 77.289 399.61 41.3571 399.61 41.3571C415.382 112.089 473.577 117.16 473.577 117.16C473.577 117.16 449.901 159.043 449.901 208.632C449.901 272.281 480.327 290.272 480.327 348.511C480.325 412.649 436.373 479.994 356.156 500.292Z" fill="#D0D3D4"/>
<path d="M432.773 208.632C432.773 163.241 449.936 128.262 449.936 128.262C449.936 128.262 410.343 120.274 391.898 70.1621C391.898 70.1621 365.619 94.6741 329.355 94.6741C283.927 94.6741 253.753 62.7771 253.753 62.7771C253.753 62.7771 223.589 94.6741 178.158 94.6741C141.894 94.6741 115.615 70.1621 115.615 70.1621C97.175 120.273 57.577 128.262 57.577 128.262C57.577 128.262 74.736 163.241 74.736 208.632C74.736 275.99 44.291 295.472 44.291 348.511C44.291 422.645 102.07 469.843 155.628 483.454C198.058 494.224 225.79 495.436 244.417 504.431C244.417 504.431 251.189 510.623 253.752 513.478C256.329 510.623 263.102 504.431 263.102 504.431C281.714 495.435 309.461 494.223 351.88 483.454C405.446 469.843 463.22 422.645 463.22 348.511C463.221 295.472 432.773 275.991 432.773 208.632ZM94.178 208.632C94.178 179.841 87.932 154.983 82.569 138.893C95.066 132.03 110.761 119.905 123.272 99.0261C136.719 106.54 155.761 114.123 178.159 114.123C212.09 114.123 238.595 99.3111 253.754 88.1791C268.912 99.3111 295.428 114.123 329.356 114.123C334.766 114.123 339.98 113.67 344.978 112.889L67.238 321.48C75.241 290.083 94.178 264.089 94.178 208.632ZM132.015 453.78C96.47 435.526 65.362 400.448 63.81 352.3L389.82 107.477C401.196 123.263 414.24 133.022 424.949 138.892C419.582 154.982 413.339 179.84 413.339 208.631C413.339 220.609 414.212 231.179 415.676 240.765L132.015 453.78ZM347.091 464.602C313.492 473.152 272.387 477.54 259.978 484.631C257.178 486.675 253.753 490.319 253.753 490.319C253.753 490.319 250.329 486.676 247.535 484.631C235.119 477.541 194.013 473.152 160.415 464.602C159.141 464.28 157.885 463.93 156.614 463.572L421.013 265.009C430.012 296.524 443.776 317.158 443.776 348.512C443.776 411.423 393.658 452.766 347.091 464.602Z" fill="#D0D3D4"/>
<path d="M184.88 352.505L154.428 305.861L120.599 331.271C120.599 331.271 132.45 331.593 132.45 344.013V431.831L156.322 413.919V351.811L183.517 393.482L208.756 374.541V265.067L184.88 282.986V352.505Z" fill="#D0D3D4"/>
<path d="M281.646 250.785L254.731 270.988V230.526L218.365 257.831C218.365 257.831 230.215 258.167 230.215 270.594V358.419L254.73 340.004V299.961L281.645 279.765V319.793L304.988 302.262V192.78L281.645 210.326L281.646 250.785Z" fill="#D0D3D4"/>
<path d="M349.88 240.613V159.089L313.521 186.387C313.521 186.387 325.376 186.712 325.376 199.128V286.964L393.052 236.125C391.595 218.601 393.052 208.2 393.052 208.2L349.88 240.613Z" fill="#D0D3D4"/>
<path d="M399.608 41.357C399.608 41.357 364.713 77.289 329.354 77.289C283.755 77.289 253.752 38.546 253.752 38.546C253.752 38.546 223.76 77.289 178.157 77.289C142.798 77.289 107.9 41.357 107.9 41.357C92.132 112.089 33.951 117.16 33.951 117.16C33.951 117.16 57.619 159.043 57.619 208.632C57.619 272.281 27.186 290.272 27.186 348.511C27.186 412.649 71.128 479.993 151.36 500.292C189.471 509.923 215.786 512.376 235.154 519.364C237.64 521.693 253.751 539.166 253.751 539.166C253.751 539.166 269.873 521.693 272.356 519.364C291.724 512.376 318.032 509.923 356.154 500.292C436.371 479.994 480.323 412.649 480.323 348.511C480.323 290.272 449.897 272.281 449.897 208.632C449.897 159.043 473.573 117.16 473.573 117.16C473.573 117.16 415.38 112.089 399.608 41.357ZM432.773 208.632C432.773 275.99 463.221 295.472 463.221 348.511C463.221 422.645 405.447 469.843 351.881 483.454C309.462 494.224 281.715 495.436 263.103 504.431C263.103 504.431 256.33 510.623 253.753 513.478C251.19 510.623 244.418 504.431 244.418 504.431C225.791 495.435 198.059 494.223 155.629 483.454C102.071 469.843 44.292 422.645 44.292 348.511C44.292 295.472 74.737 275.99 74.737 208.632C74.737 163.241 57.578 128.262 57.578 128.262C57.578 128.262 97.175 120.274 115.616 70.162C115.616 70.162 141.895 94.674 178.159 94.674C223.591 94.674 253.754 62.777 253.754 62.777C253.754 62.777 283.928 94.674 329.356 94.674C365.62 94.674 391.899 70.162 391.899 70.162C410.343 120.273 449.937 128.262 449.937 128.262C449.937 128.262 432.773 163.241 432.773 208.632Z" fill="black"/>
<path d="M431.013 55.5L410.732 0L365.483 37.451C353.497 47.385 341.329 52.43 329.354 52.43C313.327 52.43 295.098 44.635 282.9 32.573L253.752 3.735L224.607 32.573C212.414 44.636 194.185 52.43 178.157 52.43C166.175 52.43 154.021 47.385 142.032 37.451L96.776 0L76.495 55.5C70.193 72.747 59.898 83.601 45.901 87.734L0 101.26L19.47 145.48C28.466 165.888 33.029 187.173 33.029 208.778C33.029 268.535 2.54001 282.138 2.54001 348.511C2.54001 444.135 76.496 506.718 145.197 524.395C179.925 532.858 190.413 533.413 221.767 541.138C224.326 543.884 253.752 575.566 253.752 575.566C253.752 575.566 283.178 543.884 285.729 541.138C317.087 533.413 327.579 532.858 362.299 524.395C431.004 506.718 504.967 444.135 504.967 348.511C504.967 282.138 474.471 268.535 474.471 208.778C474.471 187.173 479.027 165.888 488.027 145.48L507.508 101.26L461.617 87.734C447.599 83.601 437.319 72.747 431.013 55.5ZM481.169 142.445C473.089 160.765 466.967 183.313 466.967 208.778C466.967 270.916 497.455 283.27 497.455 348.511C497.455 435.861 432.415 498.598 360.435 517.115C324.835 526.118 308.25 527.002 281.722 534.427C278.268 538.049 253.753 564.532 253.753 564.532C253.753 564.532 229.234 538.049 225.791 534.427C199.257 527.002 182.682 526.118 147.093 517.115C75.088 498.598 10.058 435.861 10.058 348.511C10.058 283.27 40.546 270.916 40.546 208.778C40.546 183.314 34.416 160.765 26.355 142.445L10.317 106.054L48.016 94.93C64.441 90.081 76.383 77.679 83.564 58.078L100.179 12.566L137.239 43.248C149.422 53.339 163.357 59.936 178.157 59.936C197.996 59.936 217.623 50.046 229.901 37.907L253.753 14.304L277.622 37.907C289.889 50.046 309.519 59.936 329.354 59.936C344.14 59.936 358.083 53.339 370.277 43.248L407.322 12.566L423.966 58.078C431.122 77.679 443.079 90.081 459.485 94.93L497.191 106.054L481.169 142.445Z" fill="black"/>
<path d="M389.82 107.478L63.81 352.301C65.361 400.449 96.47 435.526 132.015 453.781L415.676 240.768C414.212 231.181 413.339 220.612 413.339 208.634C413.339 179.843 419.582 154.985 424.949 138.895C414.241 133.023 401.197 123.264 389.82 107.478ZM208.756 374.542L183.517 393.483L156.322 351.812V413.92L132.45 431.832V344.013C132.45 331.593 120.599 331.271 120.599 331.271L154.428 305.861L184.88 352.505V282.985L208.756 265.066V374.542ZM304.989 302.263L281.646 319.794V279.766L254.731 299.962V340.005L230.216 358.42V270.595C230.216 258.168 218.366 257.832 218.366 257.832L254.732 230.527V270.989L281.647 250.786V210.327L304.99 192.781V302.263H304.989ZM393.052 236.127L325.376 286.966V199.13C325.376 186.714 313.521 186.389 313.521 186.389L349.88 159.091V240.615L393.052 208.203C393.052 208.203 391.595 218.603 393.052 236.127Z" fill="black"/>
<path d="M329.355 114.123C295.428 114.123 268.911 99.311 253.753 88.179C238.594 99.311 212.089 114.123 178.158 114.123C155.76 114.123 136.718 106.54 123.271 99.0259C110.76 119.905 95.065 132.03 82.568 138.893C87.931 154.983 94.177 179.841 94.177 208.632C94.177 264.089 75.24 290.082 67.238 321.48L344.977 112.888C339.979 113.67 334.765 114.123 329.355 114.123Z" fill="black"/>
<path d="M156.615 463.572C157.885 463.929 159.141 464.28 160.416 464.602C194.014 473.152 235.12 477.54 247.536 484.631C250.329 486.675 253.754 490.319 253.754 490.319C253.754 490.319 257.178 486.676 259.979 484.631C272.388 477.541 313.493 473.152 347.092 464.602C393.659 452.766 443.777 411.424 443.777 348.512C443.777 317.158 430.013 296.524 421.014 265.009L156.615 463.572Z" fill="black"/>
<path d="M476.474 519.686C476.474 508.85 467.686 500.073 456.847 500.073C446.011 500.073 437.242 508.849 437.242 519.686C437.242 530.529 446.012 539.298 456.847 539.298C467.686 539.298 476.474 530.529 476.474 519.686ZM441.44 519.686C441.44 511.179 448.337 504.279 456.847 504.279C465.364 504.279 472.265 511.179 472.265 519.686C472.265 528.207 465.364 535.092 456.847 535.092C448.337 535.092 441.44 528.207 441.44 519.686Z" fill="white"/>
<path d="M464.912 530.894L460.483 521.401C463.075 520.489 464.912 518.036 464.912 515.144C464.912 511.457 461.94 508.493 458.257 508.493H448.79V530.895H453.011V521.782H456.016L460.273 530.895L464.912 530.894ZM458.256 517.583H453.009V512.691H458.256C459.61 512.691 460.709 513.779 460.709 515.144C460.709 516.487 459.61 517.583 458.256 517.583Z" fill="white"/>
</svg>
